# xmcd
#
# Track frame offsets:
#	150
#	17300
#	34441
#	47785
#	63203
#	77233
#	95443
#	113699
#	130872
#	144755
#	160072
#	175639
#	188799
#	204989
#	216537
#	226802
#	243319
#	260422
#	274990
#
# Disc length: 3839 seconds
#
# Revision: 0
# Processed by: cddbd v1.5.2PL0 Copyright (c) Steve Scherf et al.
# Submitted via: audiograbber 1.83.01
#
DISCID=fe0efd13
DTITLE=Various Artist - MULTI HOTT COUNTRY # 141
DYEAR=2007
DGENRE=Country
TTITLE0=Bon Jovi feat Leann Rimes - Till We Ain't Strangers Anymore
TTITLE1=Big and Rich - BETWEEN RAISING HELL AND AMAZING GRACE
TTITLE2=Brooks and Dunn - Cowboy Town
TTITLE3=Jennifer Henson - JOYRIDE
TTITLE4=Corb Lund Band - I Wanna Be In The Cavalry
TTITLE5=Rascal Flatts - Winner At A Losing Game (radio edit)
TTITLE6=Doc Walker - That Train (Edit)
TTITLE7=Lady Antebellum - Love Don't Live Here
TTITLE8=J R Vautour - YOU CAN
TTITLE9=Terri Clark - In My Next Life (edit)
TTITLE10=Heartland - ONCE A WOMAN GETS A HOLD OF YOUR HEART
TTITLE11=Amber Nicholson - DIGGIN' IN THE DIRT
TTITLE12=Blue Rodeo - 3 Hours Away Where I Was Before
TTITLE13=Hey Romeo - SECOND HAND NEWS
TTITLE14=Gord Bamford - STAYED 'TIL TWO
TTITLE15=Anne Murray and Shania Twain - YOU NEEDED ME
TTITLE16=Brooks and Dunn - God Must Be Busy
TTITLE17=Blue Rodeo - C'mon
TTITLE18=Randy Travis  - AN OLD PAIR OF SHOES ( 1993 )
EXTD=
EXTT0=
EXTT1=
EXTT2=
EXTT3=
EXTT4=
EXTT5=
EXTT6=
EXTT7=
EXTT8=
EXTT9=
EXTT10=
EXTT11=
EXTT12=
EXTT13=
EXTT14=
EXTT15=
EXTT16=
EXTT17=
EXTT18=
PLAYORDER=
